<?xml version="1.0" encoding="UTF-8"?>
<svg width="16px" height="16px" viewBox="0 0 16 16" version="1.1" xmlns="http://www.w3.org/2000/svg" xmlns:xlink="http://www.w3.org/1999/xlink">
    <!-- Generator: Sketch 55.2 (78181) - https://sketchapp.com -->
    <title>icons/add-plus</title>
    <desc>Created with Sketch.</desc>
    <g id="Kanban" stroke="none" stroke-width="1" fill="none" fill-rule="evenodd">
        <g id="资源引用&amp;被引用" transform="translate(-989.000000, -661.000000)" fill="#202D40">
            <g id="detail" transform="translate(870.000000, 0.000000)">
                <g id="sub-requirement" transform="translate(18.000000, 659.000000)">
                    <g id="title">
                        <g id="icons/add-plus" transform="translate(101.000000, 2.000000)">
                            <path d="M8,2 C7.44771525,2 7,2.44771525 7,3 L7,7 L3,7 C2.44771525,7 2,7.44771525 2,8 C2,8.55228475 2.44771525,9 3,9 L7,9 L7,13 C7,13.5522847 7.44771525,14 8,14 C8.55228475,14 9,13.5522847 9,13 L9,9 L13,9 C13.5522847,9 14,8.55228475 14,8 C14,7.44771525 13.5522847,7 13,7 L9,7 L9,3 C9,2.44771525 8.55228475,2 8,2 Z" id="Path"></path>
                        </g>
                    </g>
                </g>
            </g>
        </g>
    </g>
</svg>